<svg t="1711270518396" class="icon" viewBox="0 0 1066 1024" version="1.1" xmlns="http://www.w3.org/2000/svg" p-id="9512" width="200" height="200"><path d="M682.666667 768a42.666667 42.666667 0 0 1 42.666666 42.666667v128a42.666667 42.666667 0 0 1-85.333333 0v-128a42.666667 42.666667 0 0 1 42.666667-42.666667z m170.666666-128a42.666667 42.666667 0 0 1 42.666667 42.666667v256a42.666667 42.666667 0 0 1-85.333333 0v-256a42.666667 42.666667 0 0 1 42.666666-42.666667z m170.666667 170.666667a42.666667 42.666667 0 0 1 42.666667 42.666666v85.333334a42.666667 42.666667 0 0 1-85.333334 0v-85.333334a42.666667 42.666667 0 0 1 42.666667-42.666666z" fill="#E02020" p-id="9513"></path><path d="M512 0c282.752 0 512 229.248 512 512a42.666667 42.666667 0 0 1-85.333333 0c0-235.648-191.018667-426.666667-426.666667-426.666667S85.333333 276.352 85.333333 512s191.018667 426.666667 426.666667 426.666667a42.666667 42.666667 0 0 1 0 85.333333C229.248 1024 0 794.752 0 512S229.248 0 512 0z m0 213.333333a42.666667 42.666667 0 0 1 42.368 37.674667L554.666667 256v213.333333h128a42.666667 42.666667 0 0 1 42.368 37.674667L725.333333 512a42.666667 42.666667 0 0 1-37.674666 42.368L682.666667 554.666667h-170.666667a42.666667 42.666667 0 0 1-42.368-37.674667L469.333333 512V256a42.666667 42.666667 0 0 1 42.666667-42.666667z" fill="#4C4A4A" p-id="9514"></path></svg>