<svg t="1711270314351" class="icon" viewBox="0 0 1024 1024" version="1.1" xmlns="http://www.w3.org/2000/svg" p-id="5167" width="200" height="200"><path d="M305.5 730.5l-11.3-11.3 59.2-59.2 11.3 11.3-59.2 59.2z m88.8-88.8L383 630.4l59.2-59.2 11.3 11.3-59.2 59.2z m88.8-88.8l-11.3-11.3 59.2-59.2 11.3 11.3-59.2 59.2z m88.8-88.8l-11.3-11.3 59.2-59.2 11.3 11.3-59.2 59.2z m88.8-88.8L649.4 364l51.8-51.8 11.3 11.3-51.8 51.8zM474.1 505.5H299.5V329.8h174.6v175.7z m-149.5-25.1H449V354.9H324.6v125.5zM692.2 725.3H518.4V552.8h173.8v172.5z m-148.7-25.1h123.6V577.9H543.5v122.3z" fill="" p-id="5168"></path><path d="M736.1 764H599.4v-50.4h25.1v25.3H711v-87.3h-22.8v-25.1h47.9zM308.4 422.8h-53.7V285.2h136.7v50.3h-25.1v-25.2h-86.5v87.4h28.6z" fill="" p-id="5169"></path><path d="M512.7 132.9c61.8 0 123.1 15.2 177.3 44l15.5-29.2c-59-31.3-125.6-47.8-192.8-47.8-145.7 0-277.7 74.6-352.9 199.6l28.3 17c69.2-114.9 190.6-183.6 324.6-183.6zM134 511.6h-33c0 227 184.7 411.7 411.7 411.7v-33C303.9 890.3 134 720.4 134 511.6z m730.6-213.8L836.4 315c36 59.1 55 127.1 55 196.6 0 135.7-73.3 261.8-191.2 329.1l16.4 28.7c128.2-73.2 207.9-210.3 207.9-357.8-0.1-75.6-20.8-149.6-59.9-213.8z m-71-20.9c26.3 0 47.7-21.4 47.7-47.7 0-26.3-21.4-47.7-47.7-47.7s-47.7 21.4-47.7 47.7c0 26.3 21.4 47.7 47.7 47.7z m0-77c16.2 0 29.4 13.2 29.4 29.3 0 16.2-13.2 29.4-29.4 29.4s-29.4-13.2-29.4-29.4 13.2-29.3 29.4-29.3z m-174 641.2c-26.3 0-47.7 21.4-47.7 47.7 0 26.3 21.4 47.7 47.7 47.7 26.3 0 47.7-21.4 47.7-47.7 0-26.3-21.4-47.7-47.7-47.7z m0 77.1c-16.2 0-29.3-13.2-29.3-29.4s13.2-29.3 29.3-29.3c16.2 0 29.4 13.2 29.4 29.3-0.1 16.2-13.2 29.4-29.4 29.4zM135.4 451.6c26.3 0 47.7-21.4 47.7-47.7 0-26.3-21.4-47.7-47.7-47.7s-47.7 21.4-47.7 47.7c0 26.3 21.4 47.7 47.7 47.7z m0-77c16.2 0 29.4 13.2 29.4 29.3 0 16.2-13.2 29.4-29.4 29.4S106 420.1 106 403.9c0-16.1 13.2-29.3 29.4-29.3z" fill="" p-id="5170"></path></svg>